<mxfile host="app.diagrams.net" modified="2022-09-19T18:41:27.762Z" agent="5.0 (Windows NT 10.0; Win64; x64) AppleWebKit/537.36 (KHTML, like Gecko) Chrome/105.0.0.0 Safari/537.36" etag="A_f6AxvH7ZJHOjthE794" version="20.3.2" type="github">
  <diagram id="MzfzfVoA6IAeOa_VuieN" name="Página-1">
    <mxGraphModel dx="1146" dy="526" grid="1" gridSize="10" guides="1" tooltips="1" connect="1" arrows="1" fold="1" page="1" pageScale="1" pageWidth="827" pageHeight="1169" math="0" shadow="0">
      <root>
        <mxCell id="0" />
        <mxCell id="1" parent="0" />
        <mxCell id="05XHDUtELIQLU3HmEuYF-1" value="" style="swimlane;startSize=0;" vertex="1" parent="1">
          <mxGeometry x="180" y="145" width="410" height="440" as="geometry" />
        </mxCell>
        <mxCell id="05XHDUtELIQLU3HmEuYF-5" value="Regularizar deuda" style="ellipse;whiteSpace=wrap;html=1;" vertex="1" parent="05XHDUtELIQLU3HmEuYF-1">
          <mxGeometry x="250" y="45" width="120" height="80" as="geometry" />
        </mxCell>
        <mxCell id="05XHDUtELIQLU3HmEuYF-6" value="Verificar morosidad" style="ellipse;whiteSpace=wrap;html=1;" vertex="1" parent="05XHDUtELIQLU3HmEuYF-1">
          <mxGeometry x="70" y="305" width="120" height="80" as="geometry" />
        </mxCell>
        <mxCell id="05XHDUtELIQLU3HmEuYF-7" value="Cargar empleado" style="ellipse;whiteSpace=wrap;html=1;" vertex="1" parent="05XHDUtELIQLU3HmEuYF-1">
          <mxGeometry x="80" y="95" width="120" height="80" as="geometry" />
        </mxCell>
        <mxCell id="05XHDUtELIQLU3HmEuYF-14" value="Asociar obra social" style="ellipse;whiteSpace=wrap;html=1;" vertex="1" parent="05XHDUtELIQLU3HmEuYF-1">
          <mxGeometry x="260" y="215" width="120" height="80" as="geometry" />
        </mxCell>
        <mxCell id="05XHDUtELIQLU3HmEuYF-15" value="" style="endArrow=classic;html=1;rounded=0;" edge="1" parent="05XHDUtELIQLU3HmEuYF-1" source="05XHDUtELIQLU3HmEuYF-14" target="05XHDUtELIQLU3HmEuYF-7">
          <mxGeometry relative="1" as="geometry">
            <mxPoint x="200" y="295" as="sourcePoint" />
            <mxPoint x="300" y="295" as="targetPoint" />
          </mxGeometry>
        </mxCell>
        <mxCell id="05XHDUtELIQLU3HmEuYF-16" value="&amp;lt;extends&amp;gt;" style="edgeLabel;resizable=0;html=1;align=center;verticalAlign=middle;" connectable="0" vertex="1" parent="05XHDUtELIQLU3HmEuYF-15">
          <mxGeometry relative="1" as="geometry" />
        </mxCell>
        <mxCell id="05XHDUtELIQLU3HmEuYF-18" value="" style="endArrow=classic;html=1;rounded=0;" edge="1" parent="05XHDUtELIQLU3HmEuYF-1" source="05XHDUtELIQLU3HmEuYF-6" target="05XHDUtELIQLU3HmEuYF-14">
          <mxGeometry relative="1" as="geometry">
            <mxPoint x="459.97487564367066" y="232.08556022114544" as="sourcePoint" />
            <mxPoint x="379.9230176602673" y="267.8119921509922" as="targetPoint" />
          </mxGeometry>
        </mxCell>
        <mxCell id="05XHDUtELIQLU3HmEuYF-19" value="&amp;lt;extends&amp;gt;" style="edgeLabel;resizable=0;html=1;align=center;verticalAlign=middle;" connectable="0" vertex="1" parent="05XHDUtELIQLU3HmEuYF-18">
          <mxGeometry relative="1" as="geometry" />
        </mxCell>
        <mxCell id="05XHDUtELIQLU3HmEuYF-3" value="Secretaria" style="shape=umlActor;verticalLabelPosition=bottom;verticalAlign=top;html=1;outlineConnect=0;" vertex="1" parent="1">
          <mxGeometry y="180" width="100" height="170" as="geometry" />
        </mxCell>
        <mxCell id="05XHDUtELIQLU3HmEuYF-4" value="Terminal electrónica" style="shape=umlActor;verticalLabelPosition=bottom;verticalAlign=top;html=1;outlineConnect=0;" vertex="1" parent="1">
          <mxGeometry x="700" y="140" width="100" height="170" as="geometry" />
        </mxCell>
        <mxCell id="05XHDUtELIQLU3HmEuYF-8" value="Servidor externo" style="shape=umlActor;verticalLabelPosition=bottom;verticalAlign=top;html=1;outlineConnect=0;" vertex="1" parent="1">
          <mxGeometry y="520" width="100" height="170" as="geometry" />
        </mxCell>
        <mxCell id="05XHDUtELIQLU3HmEuYF-9" value="" style="endArrow=classic;html=1;rounded=0;" edge="1" parent="1" source="05XHDUtELIQLU3HmEuYF-3" target="05XHDUtELIQLU3HmEuYF-7">
          <mxGeometry width="50" height="50" relative="1" as="geometry">
            <mxPoint x="390" y="420" as="sourcePoint" />
            <mxPoint x="440" y="370" as="targetPoint" />
          </mxGeometry>
        </mxCell>
        <mxCell id="05XHDUtELIQLU3HmEuYF-12" value="" style="endArrow=none;html=1;rounded=0;" edge="1" parent="1" source="05XHDUtELIQLU3HmEuYF-8" target="05XHDUtELIQLU3HmEuYF-6">
          <mxGeometry width="50" height="50" relative="1" as="geometry">
            <mxPoint x="410" y="470" as="sourcePoint" />
            <mxPoint x="460" y="420" as="targetPoint" />
          </mxGeometry>
        </mxCell>
        <mxCell id="05XHDUtELIQLU3HmEuYF-13" value="" style="endArrow=classic;html=1;rounded=0;entryX=1;entryY=0;entryDx=0;entryDy=0;" edge="1" parent="1" source="05XHDUtELIQLU3HmEuYF-4" target="05XHDUtELIQLU3HmEuYF-5">
          <mxGeometry width="50" height="50" relative="1" as="geometry">
            <mxPoint x="410" y="470" as="sourcePoint" />
            <mxPoint x="460" y="420" as="targetPoint" />
          </mxGeometry>
        </mxCell>
      </root>
    </mxGraphModel>
  </diagram>
</mxfile>
